<svg width="220" height="49" viewBox="0 0 220 49" fill="none" xmlns="http://www.w3.org/2000/svg">
<g clip-path="url(#clip0_412_4489)">
<path d="M65.5759 19.4417C64.8 18.6317 63.9763 18.0191 63.1255 17.5971C62.2679 17.175 61.2468 16.964 60.0625 16.964C58.8781 16.964 57.9047 17.175 57.0471 17.5971C56.1895 18.0191 55.4748 18.5976 54.8962 19.326C54.3176 20.0611 53.882 20.8983 53.5893 21.8513C53.2898 22.8042 53.1469 23.7912 53.1469 24.819C53.1469 25.8468 53.317 26.8202 53.6642 27.7391C54.0045 28.658 54.4878 29.4612 55.114 30.1487C55.7334 30.8361 56.4821 31.3739 57.3534 31.7618C58.2247 32.1498 59.2048 32.3472 60.2939 32.3472C61.4783 32.3472 62.4925 32.1362 63.3297 31.7142C64.1669 31.2922 64.9497 30.6796 65.6644 29.8696L68.6526 32.8577C67.5635 34.0761 66.2906 34.9474 64.8476 35.4715C63.3978 36.0024 61.8663 36.2679 60.2463 36.2679C58.531 36.2679 56.9654 35.9888 55.5496 35.4239C54.1338 34.8657 52.9086 34.0761 51.8808 33.0619C50.853 32.0477 50.0566 30.8361 49.4985 29.4203C48.9403 28.0045 48.6544 26.439 48.6544 24.7237C48.6544 23.0084 48.9335 21.4361 49.4985 20.0066C50.0566 18.5772 50.8462 17.3452 51.8604 16.3174C52.8746 15.2896 54.0862 14.4864 55.502 13.9078C56.9178 13.3292 58.4969 13.0434 60.2463 13.0434C61.8663 13.0434 63.4182 13.3292 64.8952 13.9078C66.3723 14.4864 67.6588 15.3645 68.7479 16.5488L65.5691 19.4485L65.5759 19.4417Z" fill="white"/>
<path d="M71.0894 0.376068H75.2959V35.7029H71.0894V0.376068Z" fill="white"/>
<path d="M79.4072 24.6284C79.4072 23.0084 79.7135 21.4973 80.3193 20.0951C80.9251 18.693 81.7623 17.4609 82.8174 16.4059C83.8724 15.344 85.1249 14.5136 86.5543 13.9078C87.9837 13.302 89.5288 12.9957 91.1829 12.9957C92.8369 12.9957 94.3752 13.302 95.8114 13.9078C97.2408 14.5136 98.4933 15.3509 99.5483 16.4059C100.61 17.4677 101.441 18.693 102.046 20.0951C102.652 21.4973 102.958 23.0084 102.958 24.6284C102.958 26.2484 102.652 27.7663 102.046 29.1821C101.441 30.5979 100.603 31.8299 99.5483 32.8713C98.4865 33.9128 97.2408 34.7432 95.8114 35.349C94.3752 35.9548 92.8369 36.2611 91.1829 36.2611C89.5288 36.2611 87.9905 35.9548 86.5543 35.349C85.1181 34.7432 83.8724 33.9196 82.8174 32.8713C81.7555 31.8299 80.9251 30.5979 80.3193 29.1821C79.7135 27.7663 79.4072 26.2484 79.4072 24.6284ZM83.8929 24.6284C83.8929 25.7515 84.063 26.7861 84.4102 27.7323C84.7505 28.6852 85.2338 29.4952 85.86 30.1623C86.4794 30.8361 87.2486 31.3603 88.1471 31.7482C89.0523 32.1362 90.0597 32.3336 91.1829 32.3336C92.306 32.3336 93.3134 32.1362 94.2186 31.7482C95.1239 31.3603 95.8863 30.8293 96.5057 30.1623C97.1319 29.4952 97.6084 28.6852 97.9555 27.7323C98.2959 26.7793 98.4728 25.7447 98.4728 24.6284C98.4728 23.5121 98.3027 22.4707 97.9555 21.5177C97.6152 20.5648 97.1319 19.7616 96.5057 19.0877C95.8795 18.4207 95.1171 17.8898 94.2186 17.5018C93.3134 17.1138 92.306 16.9164 91.1829 16.9164C90.0597 16.9164 89.0523 17.1138 88.1471 17.5018C87.2418 17.8898 86.4794 18.4207 85.86 19.0877C85.2338 19.7548 84.7573 20.5648 84.4102 21.5177C84.0698 22.4707 83.8929 23.5053 83.8929 24.6284Z" fill="white"/>
<path d="M122.582 19.4417C121.806 18.6317 120.983 18.0191 120.132 17.5971C119.274 17.175 118.253 16.964 117.069 16.964C115.884 16.964 114.911 17.175 114.053 17.5971C113.196 18.0191 112.481 18.5976 111.902 19.326C111.324 20.0611 110.888 20.8983 110.596 21.8513C110.296 22.8042 110.153 23.7912 110.153 24.819C110.153 25.8468 110.323 26.8202 110.67 27.7391C111.011 28.658 111.494 29.4612 112.12 30.1487C112.74 30.8361 113.488 31.3739 114.36 31.7618C115.231 32.1498 116.211 32.3472 117.3 32.3472C118.485 32.3472 119.499 32.1362 120.336 31.7142C121.173 31.2922 121.956 30.6796 122.671 29.8696L125.659 32.8577C124.57 34.0761 123.297 34.9474 121.854 35.4715C120.404 36.0024 118.873 36.2679 117.253 36.2679C115.537 36.2679 113.972 35.9888 112.556 35.4239C111.14 34.8657 109.915 34.0761 108.887 33.0619C107.859 32.0477 107.063 30.8361 106.505 29.4203C105.947 28.0045 105.661 26.439 105.661 24.7237C105.661 23.0084 105.94 21.4361 106.505 20.0066C107.063 18.5772 107.852 17.3452 108.867 16.3174C109.881 15.2896 111.092 14.4864 112.508 13.9078C113.924 13.3292 115.503 13.0434 117.253 13.0434C118.873 13.0434 120.424 13.3292 121.902 13.9078C123.379 14.4864 124.665 15.3645 125.754 16.5488L122.575 19.4485L122.582 19.4417Z" fill="white"/>
<path d="M127.769 0.376068H131.976V23.1786L141.505 13.6015H147.345L137.019 23.6482L148.23 35.7029H142.247L131.969 24.2064V35.7029H127.762V0.376068H127.769Z" fill="white"/>
<path d="M150.524 13.5539H154.73V16.7326H154.826C155.636 15.5482 156.752 14.6293 158.168 13.9759C159.584 13.3224 161.04 12.9957 162.538 12.9957C164.253 12.9957 165.798 13.2952 167.187 13.8806C168.575 14.4728 169.76 15.2964 170.74 16.3582C171.72 17.4201 172.475 18.6589 173.006 20.0747C173.537 21.4905 173.803 23.0084 173.803 24.6284C173.803 26.2484 173.537 27.814 173.006 29.2298C172.475 30.6456 171.72 31.8776 170.74 32.919C169.76 33.9604 168.575 34.7772 167.187 35.3694C165.798 35.9616 164.253 36.2543 162.538 36.2543C160.952 36.2543 159.454 35.9208 158.052 35.2469C156.65 34.573 155.574 33.6677 154.826 32.5106H154.73V48.8671H150.524V13.5539ZM162.02 16.9164C160.897 16.9164 159.89 17.1138 158.985 17.5018C158.079 17.8898 157.317 18.4207 156.698 19.0877C156.071 19.7548 155.595 20.5648 155.248 21.5177C154.907 22.4707 154.73 23.5053 154.73 24.6284C154.73 25.7515 154.901 26.7861 155.248 27.7323C155.588 28.6852 156.071 29.4952 156.698 30.1623C157.317 30.8361 158.086 31.3603 158.985 31.7482C159.89 32.1362 160.897 32.3336 162.02 32.3336C163.143 32.3336 164.151 32.1362 165.056 31.7482C165.961 31.3603 166.724 30.8293 167.343 30.1623C167.969 29.4952 168.446 28.6852 168.793 27.7323C169.133 26.7793 169.31 25.7447 169.31 24.6284C169.31 23.5121 169.14 22.4707 168.793 21.5177C168.453 20.5648 167.969 19.7616 167.343 19.0877C166.717 18.4207 165.955 17.8898 165.056 17.5018C164.151 17.1138 163.143 16.9164 162.02 16.9164Z" fill="white"/>
<path d="M177.669 16.263C178.853 15.1739 180.221 14.3571 181.78 13.8125C183.339 13.268 184.898 12.9957 186.456 12.9957C188.015 12.9957 189.472 13.1999 190.636 13.6015C191.807 14.0099 192.759 14.5545 193.508 15.2351C194.257 15.9158 194.808 16.7054 195.169 17.5971C195.53 18.4819 195.707 19.4145 195.707 20.3742V31.6802C195.707 32.4561 195.72 33.1777 195.754 33.8311C195.782 34.4845 195.829 35.1108 195.897 35.7029H192.16C192.065 34.5798 192.018 33.4635 192.018 32.3404H191.922C190.99 33.7766 189.88 34.784 188.607 35.3762C187.328 35.9684 185.851 36.2611 184.169 36.2611C183.142 36.2611 182.161 36.1182 181.229 35.8391C180.296 35.56 179.48 35.138 178.778 34.5798C178.077 34.0217 177.526 33.3274 177.118 32.5038C176.709 31.6802 176.512 30.7204 176.512 29.6313C176.512 28.2019 176.832 26.9971 177.472 26.0306C178.111 25.064 178.983 24.2813 180.085 23.6687C181.188 23.0629 182.481 22.6272 183.965 22.3618C185.442 22.0963 187.028 21.967 188.709 21.967H191.793V21.0345C191.793 20.4763 191.684 19.9114 191.466 19.3532C191.248 18.7951 190.922 18.2845 190.486 17.8353C190.05 17.3861 189.506 17.0253 188.852 16.7598C188.199 16.4944 187.416 16.3651 186.518 16.3651C185.708 16.3651 185 16.4399 184.394 16.5965C183.788 16.753 183.23 16.9436 182.733 17.1819C182.236 17.4133 181.78 17.6856 181.379 17.9987C180.97 18.3118 180.582 18.6045 180.208 18.8835L177.683 16.2698L177.669 16.263ZM189.54 25.0504C188.546 25.0504 187.525 25.1049 186.477 25.2138C185.435 25.3227 184.482 25.5337 183.625 25.8468C182.767 26.1599 182.066 26.5956 181.522 27.1537C180.977 27.7119 180.705 28.4334 180.705 29.3046C180.705 30.5843 181.134 31.5032 181.991 32.0613C182.849 32.6195 184.006 32.9054 185.469 32.9054C186.62 32.9054 187.6 32.708 188.417 32.32C189.227 31.932 189.88 31.4215 190.377 30.8021C190.874 30.1759 191.235 29.4884 191.453 28.7261C191.67 27.9637 191.779 27.2082 191.779 26.4594V25.0572H189.54V25.0504Z" fill="white"/>
<path d="M197.715 13.5539H202.575L209.13 30.8429H209.225L215.514 13.5539H220L209.484 40.4676C209.109 41.4342 208.721 42.3123 208.32 43.1086C207.918 43.905 207.435 44.5789 206.877 45.1438C206.318 45.702 205.645 46.1376 204.855 46.4507C204.065 46.7639 203.092 46.9204 201.949 46.9204C201.329 46.9204 200.703 46.8796 200.063 46.8047C199.43 46.723 198.817 46.5596 198.225 46.3146L198.736 42.4824C199.573 42.8228 200.41 42.9997 201.241 42.9997C201.894 42.9997 202.439 42.9112 202.888 42.7411C203.337 42.5709 203.725 42.3191 204.052 41.9923C204.379 41.6656 204.651 41.2844 204.862 40.8488C205.08 40.4132 205.297 39.9163 205.508 39.3513L206.87 35.8459L197.708 13.5607L197.715 13.5539Z" fill="white"/>
<path d="M32.8833 29.8492H9.82208V39.6712H32.8833V29.8492Z" fill="white"/>
<path d="M16.4451 23.1037C18.148 23.1037 19.5285 21.7232 19.5285 20.0202C19.5285 18.3173 18.148 16.9368 16.4451 16.9368C14.7421 16.9368 13.3616 18.3173 13.3616 20.0202C13.3616 21.7232 14.7421 23.1037 16.4451 23.1037Z" fill="white"/>
<path d="M32.8833 0.376068V10.1982H9.8289V29.8424H0V0.376068H32.8833Z" fill="white"/>
</g>
<defs>
<clipPath id="clip0_412_4489">
<rect width="220" height="48.4979" fill="white" transform="translate(0 0.376068)"/>
</clipPath>
</defs>
</svg>
